<svg width="36" height="36" viewBox="0 0 36 36" fill="none" xmlns="http://www.w3.org/2000/svg">
<g clip-path="url(#clip0_27_780)">
<path d="M19.9179 17.257C20.3326 17.0449 20.7946 16.9328 21.274 16.9328C22.0683 16.9328 22.8151 17.2411 23.3781 17.8012L24.59 16.5894C27.5891 17.6407 31.0578 16.9676 33.4554 14.5702C35.4727 12.5529 36.2683 9.77732 35.8436 7.16104C35.7968 6.87292 35.5928 6.63527 35.3151 6.54562C35.0375 6.45584 34.7326 6.52879 34.5263 6.73524L32.7269 8.5347C31.2615 10.0001 28.8854 10.0001 27.42 8.5347C25.9545 7.06929 25.9545 4.69323 27.42 3.22783L29.2195 1.42838C29.4259 1.22193 29.4995 0.917109 29.4096 0.639306C29.3198 0.361381 29.0818 0.15788 28.7935 0.111088C26.1774 -0.313598 23.4017 0.481983 21.3845 2.49931C18.9513 4.93247 18.2965 8.4685 19.4156 11.4977L16.7871 14.1261L19.9179 17.257Z" fill="white"/>
<path d="M15.1281 22.0199L12.0105 18.9023L1.10903 29.8036C-0.308478 31.2211 -0.308478 33.5193 1.10903 34.9368C2.52653 36.3544 4.82473 36.3544 6.24224 34.9368L15.64 25.5392C14.6921 24.5863 14.5213 23.1477 15.1281 22.0199Z" fill="white"/>
<path d="M22.081 19.1094C21.8581 18.8865 21.5658 18.775 21.2737 18.775C20.9815 18.775 20.6892 18.8865 20.4663 19.1094L19.8155 19.7602L8.22296 8.16766L8.76481 7.62581C9.25852 7.13222 9.19723 6.31343 8.6345 5.89906L3.90474 2.41572C3.45021 2.08106 2.81944 2.12858 2.4203 2.52773L0.412064 4.53608C0.0129219 4.93522 -0.0346067 5.56611 0.300058 6.02052L3.78328 10.7503C4.19765 11.3129 5.01595 11.3748 5.51002 10.8806L6.05187 10.3386L17.6444 21.9312L16.9478 22.6278C16.5019 23.0737 16.5019 23.7966 16.9478 24.2425L27.6422 34.9369C29.0598 36.3544 31.3579 36.3544 32.7755 34.9369C34.193 33.5194 34.193 31.2212 32.7755 29.8037L22.081 19.1094Z" fill="white"/>
</g>
<defs>
<clipPath id="clip0_27_780">
<rect width="36" height="36" fill="white"/>
</clipPath>
</defs>
</svg>
