<svg width="36" height="36" viewBox="0 0 36 36" fill="none" xmlns="http://www.w3.org/2000/svg">
<path d="M30.0803 13.516V26.799C30.0803 27.2966 29.6779 27.699 29.1803 27.699H6.82322C6.32557 27.699 5.92323 27.2966 5.92323 26.799V12.5049C5.92323 12.0072 6.32557 11.6049 6.82322 11.6049H18.6609V9.21191H5.83852C4.56263 9.21191 3.53027 10.2443 3.53027 11.5201V29.1972H32.4732V13.516H30.0803Z" fill="white"/>
<path d="M34.9292 30.0601C34.7386 29.7689 34.4209 29.5942 34.0715 29.5942H1.93094C1.58153 29.5942 1.26389 29.7689 1.0733 30.0601C0.882716 30.3513 0.856236 30.7166 0.988589 31.0078L1.44917 32.5484C1.88859 33.5331 2.86801 34.1631 3.94272 34.1631H32.0545C33.1239 34.1631 34.1033 33.5331 34.5586 32.5272L35.0086 31.0184C35.1462 30.706 35.1145 30.346 34.9292 30.0601ZM20.7357 32.5219H15.2668C14.9068 32.5219 14.6209 32.2307 14.6209 31.876C14.6209 31.5213 14.9068 31.2301 15.2668 31.2301H20.7357C21.0904 31.2301 21.3815 31.5213 21.3815 31.876C21.3815 32.2307 21.0904 32.5219 20.7357 32.5219Z" fill="white"/>
<path d="M13.6463 20.1018C12.0676 20.1018 10.7832 18.621 10.7832 16.8004C10.7832 14.9803 12.0676 13.4995 13.6463 13.4995C15.2255 13.4995 16.5104 14.9803 16.5104 16.8004C16.5104 18.621 15.2255 20.1018 13.6463 20.1018Z" fill="white"/>
<path d="M18.3781 25.8072H8.91537C8.75867 25.8072 8.60779 25.7416 8.50138 25.6272C8.39444 25.5124 8.3399 25.3572 8.35103 25.2011L8.52838 22.7255C8.62844 21.3337 9.79897 20.2437 11.1945 20.2437H16.0989C17.4945 20.2437 18.665 21.3337 18.7646 22.7255L18.9419 25.2011C18.953 25.3572 18.8985 25.5124 18.7921 25.6272C18.6857 25.7416 18.5343 25.8072 18.3781 25.8072Z" fill="white"/>
<path d="M34.1829 2.26045C33.9076 2.00103 33.537 1.83691 33.1188 1.83691H20.6141C19.7564 1.83691 19.0576 2.54103 19.0576 3.39868V11.5569C19.0576 11.6416 19.0629 11.721 19.0788 11.8004C19.1953 12.5469 19.8412 13.1187 20.6141 13.1187H20.7094C21.1435 13.1187 21.4929 13.4681 21.4929 13.8969V15.7869C21.4929 16.3375 22.16 16.6234 22.5624 16.2316L25.4424 13.3516C25.5906 13.2034 25.7865 13.1187 25.9929 13.1187H33.1188C33.9817 13.1187 34.6806 12.4199 34.6806 11.5569V3.39868C34.6806 2.94868 34.49 2.54632 34.1829 2.26045ZM22.8641 8.57632C22.2235 8.57632 21.71 8.0575 21.71 7.41692C21.71 6.77633 22.2235 6.2628 22.8641 6.2628C23.5047 6.2628 24.0235 6.77633 24.0235 7.41692C24.0235 8.0575 23.5047 8.57632 22.8641 8.57632ZM26.8664 8.57632C26.2259 8.57632 25.7123 8.0575 25.7123 7.41692C25.7123 6.77633 26.2259 6.2628 26.8664 6.2628C27.507 6.2628 28.0259 6.77633 28.0259 7.41692C28.0259 8.0575 27.507 8.57632 26.8664 8.57632ZM30.8688 8.57632C30.2282 8.57632 29.7147 8.0575 29.7147 7.41692C29.7147 6.77633 30.2282 6.2628 30.8688 6.2628C31.5094 6.2628 32.0282 6.77633 32.0282 7.41692C32.0282 8.0575 31.5094 8.57632 30.8688 8.57632Z" fill="white"/>
</svg>
