<svg width="36" height="36" viewBox="0 0 36 36" fill="none" xmlns="http://www.w3.org/2000/svg">
<path d="M24.6427 17.5998H27.9081L27.9051 19.3749H24.6426L24.6427 17.5998ZM31.026 15.4418V15.8099C31.0256 16.22 30.8625 16.6132 30.5725 16.9032C30.2825 17.1932 29.8893 17.3563 29.4791 17.3567H28.8929L28.8889 19.6664H30.8009C31.4729 19.6656 32.1172 19.3983 32.5923 18.9231C33.0675 18.4479 33.3347 17.8037 33.3355 17.1317V15.4418H31.026ZM33.1099 7.67934C33.1099 7.63806 33.0936 7.59845 33.0644 7.56922C33.0353 7.53999 32.9957 7.52353 32.9544 7.52345H31.4903C31.4491 7.52353 31.4095 7.53995 31.3804 7.56911C31.3512 7.59828 31.3348 7.63782 31.3348 7.67906V14.4572H33.11L33.1099 7.67934ZM30.7053 22.6169H28.7928L28.7968 24.9266H29.3834C29.7936 24.9271 30.1868 25.0902 30.4768 25.3802C30.7668 25.6702 30.9299 26.0634 30.9303 26.4735V26.8415H33.2399V25.1515C33.2392 24.4795 32.9719 23.8353 32.4967 23.3601C32.0216 22.885 31.3773 22.6177 30.7053 22.6169ZM31.239 34.604C31.2391 34.6452 31.2555 34.6847 31.2847 34.7139C31.3138 34.743 31.3534 34.7594 31.3946 34.7595H32.8586C32.8998 34.7594 32.9393 34.743 32.9685 34.7139C32.9976 34.6847 33.014 34.6452 33.0141 34.604V27.8258H31.2388L31.239 34.604ZM24.1508 31.2671H4.41027C3.94715 31.2671 3.50299 31.451 3.17552 31.7785C2.84804 32.106 2.66406 32.5502 2.66406 33.0133C2.66406 33.4764 2.84804 33.9206 3.17552 34.248C3.50299 34.5755 3.94715 34.7595 4.41027 34.7595H24.1506C24.6137 34.7595 25.0579 34.5755 25.3853 34.248C25.7128 33.9206 25.8968 33.4764 25.8968 33.0133C25.8968 32.5502 25.7128 32.106 25.3853 31.7785C25.0579 31.451 24.6137 31.2671 24.1506 31.2671H24.1508ZM23.6586 10.3233C23.6586 9.65891 22.6827 9.01267 20.9812 8.55023C19.2625 8.08307 16.9246 7.82601 14.3981 7.82601C11.8749 7.82601 9.42109 8.0946 7.66595 8.56288C5.91081 9.03116 4.90267 9.67312 4.90267 10.3235V12.5356H23.6583L23.6586 10.3233ZM23.6586 30.2827H4.90253V13.5198H23.6583L23.6586 30.2827ZM17.1382 23.7737C17.1382 22.5632 15.3338 19.8194 14.2807 18.365C13.2276 19.8194 11.4232 22.5632 11.4232 23.7737C11.4232 24.1489 11.4971 24.5205 11.6407 24.8672C11.7843 25.2139 11.9948 25.5289 12.2601 25.7942C12.5255 26.0596 12.8405 26.27 13.1872 26.4136C13.5338 26.5572 13.9054 26.6312 14.2807 26.6312C14.6559 26.6312 15.0275 26.5572 15.3742 26.4136C15.7209 26.27 16.0359 26.0596 16.3012 25.7942C16.5666 25.5289 16.7771 25.2139 16.9207 24.8672C17.0643 24.5205 17.1382 24.1489 17.1382 23.7737ZM24.643 22.9083V24.6834H27.8125L27.8095 22.9083H24.643ZM13.4241 6.24166C13.4241 6.37219 13.4759 6.49738 13.5682 6.58969C13.6605 6.68199 13.7857 6.73384 13.9162 6.73384C14.0468 6.73384 14.172 6.68199 14.2643 6.58969C14.3566 6.49738 14.4084 6.37219 14.4084 6.24166C14.4084 6.07326 14.4626 6.00963 14.6339 5.83258C14.8341 5.626 15.1367 5.31367 15.1367 4.73859C15.1367 4.1635 14.8344 3.85117 14.6339 3.64459C14.4626 3.46783 14.4084 3.40391 14.4084 3.23559C14.4084 3.06726 14.4626 3.00356 14.6338 2.82672C14.8341 2.62014 15.1367 2.30781 15.1367 1.73273C15.1367 1.60219 15.0849 1.477 14.9926 1.3847C14.9003 1.29239 14.7751 1.24054 14.6445 1.24054C14.514 1.24054 14.3888 1.29239 14.2965 1.3847C14.2042 1.477 14.1524 1.60219 14.1524 1.73273C14.1524 1.90098 14.0982 1.96476 13.9269 2.14159C13.7268 2.34817 13.4241 2.6605 13.4241 3.23559C13.4241 3.81067 13.7268 4.123 13.9269 4.32965C14.0982 4.50634 14.1524 4.57026 14.1524 4.73859C14.1524 4.90691 14.0982 4.97062 13.9269 5.14759C13.7268 5.35417 13.4241 5.6665 13.4241 6.24166ZM15.4934 6.24166C15.4934 6.37219 15.5453 6.49738 15.6376 6.58969C15.7299 6.68199 15.8551 6.73384 15.9856 6.73384C16.1161 6.73384 16.2413 6.68199 16.3336 6.58969C16.4259 6.49738 16.4778 6.37219 16.4778 6.24166C16.4778 6.07326 16.5319 6.00963 16.7032 5.83258C16.9034 5.626 17.2061 5.31367 17.2061 4.73859C17.2061 4.1635 16.9038 3.85117 16.7032 3.64459C16.5319 3.46783 16.4778 3.40391 16.4778 3.23559C16.4778 3.06726 16.5319 3.00356 16.7028 2.82672C16.903 2.62014 17.2057 2.30781 17.2057 1.73273C17.2057 1.60219 17.1539 1.477 17.0616 1.3847C16.9693 1.29239 16.8441 1.24054 16.7136 1.24054C16.583 1.24054 16.4578 1.29239 16.3655 1.3847C16.2732 1.477 16.2214 1.60219 16.2214 1.73273C16.2214 1.90098 16.1672 1.96476 15.9959 2.14159C15.7957 2.34817 15.4931 2.6605 15.4931 3.23559C15.4931 3.81067 15.7954 4.123 15.9959 4.32965C16.1672 4.50634 16.2214 4.57026 16.2214 4.73859C16.2214 4.90691 16.1672 4.97062 15.9959 5.14759C15.796 5.35417 15.4934 5.6665 15.4934 6.24166ZM11.3547 6.24166C11.3547 6.37219 11.4065 6.49738 11.4988 6.58969C11.5911 6.68199 11.7163 6.73384 11.8469 6.73384C11.9774 6.73384 12.1026 6.68199 12.1949 6.58969C12.2872 6.49738 12.3391 6.37219 12.3391 6.24166C12.3391 6.07326 12.3933 6.00963 12.5645 5.83258C12.7647 5.626 13.0674 5.31367 13.0674 4.73859C13.0674 4.1635 12.7651 3.85117 12.5645 3.64459C12.3933 3.46783 12.3391 3.40391 12.3391 3.23559C12.3391 3.06726 12.3933 3.00356 12.5641 2.82672C12.7644 2.62014 13.0671 2.30781 13.0671 1.73273C13.0671 1.60219 13.0152 1.477 12.9229 1.3847C12.8306 1.29239 12.7054 1.24054 12.5749 1.24054C12.4444 1.24054 12.3192 1.29239 12.2269 1.3847C12.1346 1.477 12.0827 1.60219 12.0827 1.73273C12.0827 1.90098 12.0285 1.96476 11.8573 2.14159C11.657 2.34817 11.3543 2.6605 11.3543 3.23559C11.3543 3.81067 11.6567 4.123 11.8573 4.32965C12.0285 4.50634 12.0827 4.57026 12.0827 4.73859C12.0827 4.90691 12.0285 4.97062 11.8573 5.14759C11.6577 5.35417 11.3547 5.6665 11.3547 6.24166Z" fill="white"/>
</svg>
