<svg width="36" height="36" viewBox="0 0 36 36" fill="none" xmlns="http://www.w3.org/2000/svg">
<g clip-path="url(#clip0_27_803)">
<path d="M26.7491 4.92679C26.4901 4.66804 26.0705 4.66804 25.8114 4.92679L21.7951 8.93917C21.5357 9.19827 21.5357 9.61867 21.7951 9.87784L22.1687 10.2511L13.4111 18.9948L14.902 20.487L23.661 11.742L24.0219 12.1025C24.281 12.3613 24.7006 12.3613 24.9596 12.1025L28.976 8.09015C29.2354 7.83105 29.2354 7.41065 28.976 7.15148L26.7491 4.92679Z" fill="white"/>
<path d="M6.24902 35.3067C6.24902 35.6896 6.55945 36 6.9423 36H8.89095C9.27176 36 9.58134 35.6928 9.58423 35.312L9.61945 30.6724L6.24902 33.8782V35.3067Z" fill="white"/>
<path d="M2.03154 28.2824C1.76097 28.5531 1.76097 28.9919 2.03154 29.2626L5.0002 32.2149L10.7146 26.4975L7.26518 23.0458L2.03154 28.2824Z" fill="white"/>
<path d="M15.1027 25.1854L13.7049 26.5841L14.0855 26.9652C14.7311 27.6113 14.7311 28.6625 14.0855 29.3086L11.4772 31.9186L11.4561 34.7372L15.4842 30.7064C16.9001 29.2896 16.9001 26.9842 15.4842 25.5674L15.1027 25.1854Z" fill="white"/>
<path d="M13.7242 23.486C14.0213 23.1887 14.0213 22.7069 13.7242 22.4096L11.3512 20.0351C11.0538 19.7375 10.5714 19.7375 10.2741 20.0351L8.88135 21.4287L12.3307 24.8804L13.7242 23.486Z" fill="white"/>
<path d="M27.4312 2.10938C28.0136 2.10938 28.4858 1.63718 28.4858 1.05469C28.4858 0.4722 28.0136 0 27.4312 0C26.8487 0 26.3765 0.4722 26.3765 1.05469C26.3765 1.63718 26.8487 2.10938 27.4312 2.10938Z" fill="white"/>
<path d="M30.2734 4.95227C30.8559 4.95227 31.3281 4.48007 31.3281 3.89758C31.3281 3.3151 30.8559 2.8429 30.2734 2.8429C29.6909 2.8429 29.2188 3.3151 29.2188 3.89758C29.2188 4.48007 29.6909 4.95227 30.2734 4.95227Z" fill="white"/>
<path d="M33.1167 7.79517C33.6992 7.79517 34.1714 7.32297 34.1714 6.74048C34.1714 6.15799 33.6992 5.68579 33.1167 5.68579C32.5342 5.68579 32.062 6.15799 32.062 6.74048C32.062 7.32297 32.5342 7.79517 33.1167 7.79517Z" fill="white"/>
<path d="M33.1167 2.10938C33.6992 2.10938 34.1714 1.63718 34.1714 1.05469C34.1714 0.4722 33.6992 0 33.1167 0C32.5342 0 32.062 0.4722 32.062 1.05469C32.062 1.63718 32.5342 2.10938 33.1167 2.10938Z" fill="white"/>
</g>
<defs>
<clipPath id="clip0_27_803">
<rect width="36" height="36" fill="white"/>
</clipPath>
</defs>
</svg>
