<svg width="36" height="36" viewBox="0 0 36 36" fill="none" xmlns="http://www.w3.org/2000/svg">
<g clip-path="url(#clip0_27_815)">
<path d="M0 4.25287H12.7059V7.42934H0V4.25287Z" fill="white"/>
<path d="M2.11768 0.0175781H10.5883V2.13523H2.11768V0.0175781Z" fill="white"/>
<path d="M7.17758 23.9934C7.83412 24.0129 8.46575 23.8329 9.00363 23.483C11.2104 22.0768 10.4054 22.5898 10.5884 22.4731V9.547H2.11782C2.19448 11.1398 1.91304 24.914 2.33078 26.1103L2.90481 25.9763C3.39688 25.827 3.85048 25.5558 4.21824 25.1909C5.01829 24.3972 6.09603 23.9601 7.17758 23.9934Z" fill="white"/>
<path d="M21.4814 30.5127C21.1645 30.1826 20.6934 30.003 20.1891 30.0204C18.6613 30.0751 17.1344 29.4535 16.0673 28.2653L15.2613 27.4182C13.2906 27.9516 11.3007 26.7894 10.7398 24.8876C9.6139 25.6676 8.51187 26.1596 7.11331 26.1101C6.61051 26.0959 6.09924 26.3077 5.7098 26.6941C5.08658 27.3126 4.31378 27.7696 3.47498 28.016L3.41731 28.0313L2.90625 28.1506C5.9899 36.6385 17.6024 38.7762 23.4722 31.8343L22.7918 31.5095C22.3057 31.2474 21.8648 30.912 21.4814 30.5127Z" fill="white"/>
<path d="M18 19.2529V23.8411C18 24.7693 17.6562 25.6182 17.0903 26.2691L17.6355 26.8423C18.2483 27.5295 19.1511 27.9372 20.1154 27.9041C21.2212 27.8655 22.2758 28.2826 23.0089 29.0461C23.2339 29.2805 23.4917 29.4782 23.7752 29.6338L24.7389 30.0935C25.8378 28.2648 26.4706 26.1255 26.4706 23.8411V19.6764C26.4642 17.3924 28.4642 15.7005 30.7059 15.9V7.42938C23.8917 6.99385 17.9731 12.383 18 19.2529Z" fill="white"/>
<path d="M32.8237 5.31171H36.0002V18.0176H32.8237V5.31171Z" fill="white"/>
</g>
<defs>
<clipPath id="clip0_27_815">
<rect width="36" height="36" fill="white"/>
</clipPath>
</defs>
</svg>
