<svg width="36" height="36" viewBox="0 0 36 36" fill="none" xmlns="http://www.w3.org/2000/svg">
<g clip-path="url(#clip0_27_871)">
<path d="M4.21875 1.45374H2.10938C0.946266 1.45374 0 2.4 0 3.56311V15.6181C0 16.7812 0.946266 17.7275 2.10938 17.7275H4.21875C5.38186 17.7275 6.32812 16.7812 6.32812 15.6181V3.56311C6.32812 2.4 5.38186 1.45374 4.21875 1.45374Z" fill="white"/>
<path d="M33.8906 1.45374H31.7812C30.6181 1.45374 29.6719 2.4 29.6719 3.56311V15.6181C29.6719 16.7812 30.6181 17.7275 31.7812 17.7275H33.8906C35.0537 17.7275 36 16.7812 36 15.6181V3.56311C36 2.4 35.0537 1.45374 33.8906 1.45374Z" fill="white"/>
<path d="M8.36523 16.3915H16.2551C16.2726 16.3383 16.2933 16.2856 16.32 16.2343L17.8595 13.2698L15.4984 10.2387C15.2014 9.85763 15.2014 9.32353 15.4984 8.94244L17.8595 5.91141L16.32 2.94696C16.2934 2.89563 16.2726 2.8429 16.2551 2.78967H8.36523C8.41192 3.04062 8.43752 3.29888 8.43752 3.56311V15.6181C8.43752 15.8824 8.41192 16.1405 8.36523 16.3915Z" fill="white"/>
<path d="M27.6346 2.78967H18.6149L20.0431 5.53974C20.2331 5.90564 20.1925 6.34868 19.9391 6.67395L17.667 9.59058L19.9391 12.5073C20.1925 12.8325 20.2331 13.2757 20.0431 13.6415L18.6149 16.3914H27.6346C27.5879 16.1405 27.5624 15.8823 27.5624 15.618V3.56311C27.5623 3.29881 27.5879 3.04062 27.6346 2.78967Z" fill="white"/>
<path d="M19.7459 20.6088C18.9101 19.5364 18.5348 19.2428 18 19.2428C17.4652 19.2428 17.0899 19.5364 16.2541 20.6088C15.7243 21.2885 15.1342 22.139 14.5926 23.0034C13.5167 24.7204 12.2344 27.1165 12.2344 28.7806C12.2344 31.9598 14.8208 34.5462 18 34.5462C21.1792 34.5462 23.7656 31.9598 23.7656 28.7806C23.7656 27.1165 22.4833 24.7204 21.4074 23.0034C20.8658 22.139 20.2757 21.2885 19.7459 20.6088Z" fill="white"/>
</g>
<defs>
<clipPath id="clip0_27_871">
<rect width="36" height="36" fill="white"/>
</clipPath>
</defs>
</svg>
