<svg width="56" height="56" viewBox="0 0 56 56" fill="none" xmlns="http://www.w3.org/2000/svg">
<path d="M45.5032 16.0507C45.5032 15.8862 45.4832 15.7207 45.4414 15.5576C44.1354 10.4282 40.636 6.23804 36 3.9342V8C36 9.10449 35.1055 10 34 10C32.8946 10 32 9.10449 32 8V2.56152V2C32 0.895386 31.1046 0 30 0H26C24.8954 0 24 0.895386 24 2V2.56128V8C24 9.10449 23.1045 10 22 10C20.8955 10 20 9.10449 20 8V3.9342C15.3631 6.23792 11.8637 10.4282 10.5576 15.5576C10.5161 15.7208 10.5014 15.8859 10.5091 16.0494C9.08719 16.2849 8.00003 17.5114 8.00003 19C8.00003 20.6569 9.34317 22 11 22H45C46.6569 22 48 20.6569 48 19C48 17.5155 46.9192 16.291 45.5032 16.0507Z" fill="white"/>
<path d="M42 26H14V28C14 31.8181 15.5399 35.2806 18.0269 37.8088C18.0205 37.8733 18 37.9343 18 38V41.3671L27.9502 45.7891L38 40.7638V38C38 37.9342 37.9795 37.873 37.9732 37.8085C40.46 35.2803 42 31.8179 42 28V26Z" fill="white"/>
<path d="M16 56H40V44.2363L28.8946 49.7891C28.6133 49.9297 28.3067 50 28 50C27.7237 50 27.4463 49.9424 27.1875 49.8271L16 44.855V56Z" fill="white"/>
<path d="M12 44.2241C7.23733 45.683 3.10269 48.7396 0.335965 52.8906C-0.0732143 53.5039 -0.1113 54.293 0.236356 54.9434C0.584989 55.5938 1.26272 56 2.00003 56H12V44.2241Z" fill="white"/>
<path d="M55.6641 52.8906C52.8976 48.7399 48.7632 45.6833 44 44.2244V56H54C54.7383 56 55.416 55.5938 55.7637 54.9434C56.1114 54.293 56.0723 53.5039 55.6641 52.8906Z" fill="white"/>
</svg>
