<svg width="62" height="59" viewBox="0 0 62 59" fill="none" xmlns="http://www.w3.org/2000/svg">
<path fill-rule="evenodd" clip-rule="evenodd" d="M11.783 58.4678C6.38 58.4678 2 54.0878 2 48.6848C2 44.3857 5.484 40.9017 9.78312 40.9017C10.7458 40.9017 11.6967 41.0766 12.5944 41.4246C14.5615 42.1873 16.6787 40.7375 16.6787 38.6276V16.0051H45.2967L42.2513 21.2802V23.9897L39.3395 22.6755L22.8787 30.1051C22.4347 30.3055 22.5786 30.974 23.0658 30.974H25.5755V47.0235H30.0234V38.666C30.0234 38.1841 30.4164 37.791 30.8984 37.791H36.7986C37.2805 37.791 37.6736 38.1841 37.6736 38.666V47.0235H53.1031V30.974H55.613C56.1001 30.974 56.2441 30.3055 55.8 30.1051L48.9794 27.0265L50.5918 26.0956L56.4175 16.005H60.75C61.4385 16.005 62 16.5665 62 17.255V57.2177C62 57.9062 61.4385 58.4677 60.75 58.4677H11.783V58.4678ZM44.75 20.9522L49.6265 23.7676L59.8335 6.08859L54.957 3.27309L44.75 20.9522ZM55.9545 1.54521L56.1699 1.17209C56.816 0.0529624 58.2557 -0.332912 59.3749 0.313338L60.1876 0.782588C61.3068 1.42871 61.6925 2.86846 61.0464 3.98759L60.831 4.36071L55.9545 1.54521ZM48.13 25.2076L44.2511 22.9681V27.447L48.13 25.2076ZM0 48.6848C0 43.2817 4.38 38.9017 9.78312 38.9017C11.0295 38.9017 12.2213 39.135 13.3174 39.5598C13.9757 39.8151 14.6789 39.3335 14.6789 38.6275V6.04971C14.6789 5.66034 14.472 5.32684 14.1231 5.15384C12.8154 4.50534 11.3419 4.14059 9.78312 4.14059C4.38 4.14046 0 8.52046 0 13.9236V48.6848ZM41.8747 33.8691C41.3929 33.8691 40.9997 34.2622 40.9997 34.7441V38.321C40.9997 38.8028 41.3929 39.196 41.8747 39.196H47.4777C47.9596 39.196 48.3527 38.803 48.3527 38.321V34.7441C48.3527 34.2622 47.9597 33.8691 47.4777 33.8691H41.8747ZM23.4953 49.0235C23.2203 49.0235 22.9953 49.2485 22.9953 49.5235V51.2975C22.9953 51.5725 23.2203 51.7975 23.4953 51.7975H55.1835C55.4585 51.7975 55.6835 51.5725 55.6835 51.2975V49.5235C55.6835 49.2485 55.4585 49.0235 55.1835 49.0235C44.6208 49.0235 34.058 49.0235 23.4953 49.0235ZM28.2617 25.4812L32.4588 23.5868V23.346C32.4588 22.9335 32.1213 22.596 31.7088 22.596H29.0117C28.5992 22.596 28.2617 22.9335 28.2617 23.346V25.4812Z" fill="white"/>
</svg>
