<svg width="36" height="36" viewBox="0 0 36 36" fill="none" xmlns="http://www.w3.org/2000/svg">
<g clip-path="url(#clip0_2004_396)">
<path d="M11.3616 25.4862L13.8312 24.0605C14.1512 24.2817 14.4868 24.4763 14.836 24.6431V27.4922H21.1641V24.6431C21.5134 24.4763 21.849 24.2817 22.169 24.0605L24.6385 25.4862L27.8026 20.0059L25.3548 18.5927C25.3737 18.3886 25.3829 18.1918 25.3829 18C25.3829 17.8082 25.3736 17.6114 25.3548 17.4073L27.8026 15.9941L24.6385 10.5138L22.169 11.9395C21.8489 11.7183 21.5134 11.5237 21.1641 11.3569V8.50781H14.836V11.3569C14.4867 11.5237 14.1512 11.7183 13.8312 11.9395L11.3616 10.5138L8.19751 15.9941L10.6453 17.4073C10.6265 17.6114 10.6172 17.8081 10.6172 18C10.6172 18.1919 10.6265 18.3886 10.6453 18.5927L8.19751 20.0059L11.3616 25.4862ZM12.7266 18C12.7266 17.387 12.8648 16.8805 12.9601 16.3081L11.0789 15.222L12.1336 13.3952L14.0315 14.4908L14.5983 14.0073C15.5986 13.1537 16.4955 12.9938 16.9454 12.8038V10.6172H19.0547V12.8038C19.4996 12.9917 20.4007 13.153 21.4018 14.0073L21.9686 14.4908L23.8665 13.3952L24.9212 15.222L23.04 16.3081C23.137 16.8903 23.2735 17.3872 23.2735 18C23.2735 18.2902 23.2422 18.5952 23.1751 18.9596L23.04 19.6919L24.9212 20.778L23.8665 22.6048L21.9686 21.5092L21.4018 21.9927C20.4015 22.8463 19.5048 23.0061 19.0547 23.1962V25.3828H16.9454V23.1962C16.5005 23.0082 15.5994 22.8469 14.5983 21.9926L14.0315 21.5091L12.1336 22.6048L11.0789 20.778L12.9601 19.6919C12.8632 19.1097 12.7266 18.6128 12.7266 18Z" fill="white"/>
<path d="M18 21.1641C19.7447 21.1641 21.1641 19.7447 21.1641 18C21.1641 16.2553 19.7447 14.8359 18 14.8359C16.2553 14.8359 14.8359 16.2553 14.8359 18C14.8359 19.7447 16.2553 21.1641 18 21.1641ZM18 16.9453C18.5816 16.9453 19.0547 17.4184 19.0547 18C19.0547 18.5816 18.5816 19.0547 18 19.0547C17.4184 19.0547 16.9453 18.5816 16.9453 18C16.9453 17.4184 17.4184 16.9453 18 16.9453Z" fill="white"/>
<path d="M35.3647 13.5183L33.3219 14.0442C33.7099 15.5513 33.8906 16.8083 33.8906 18C33.8906 26.7621 26.7621 33.8906 18 33.8906C13.0226 33.8906 8.32479 31.4791 5.34073 27.4921H7.45312V25.3828H2.17969V30.6562H4.28906V29.5559C7.81467 33.7542 12.858 36 18 36C27.9112 36 36 27.9106 36 18C36 16.6261 35.7981 15.202 35.3647 13.5183Z" fill="white"/>
<path d="M2.67806 21.9559C2.29008 20.4486 2.10938 19.1917 2.10938 18C2.10938 9.23787 9.23787 2.10938 18 2.10938C22.9774 2.10938 27.6751 4.52081 30.6593 8.50781H28.5469V10.6172H33.8203V5.34375H31.7109V6.44407C28.1786 2.2377 23.1315 0 18 0C13.2108 0 8.69576 1.87748 5.28666 5.28666C1.87755 8.69583 0 13.2108 0 18C0 19.3739 0.201867 20.7979 0.635273 22.4816L2.67806 21.9559Z" fill="white"/>
</g>
<defs>
<clipPath id="clip0_2004_396">
<rect width="36" height="36" fill="white"/>
</clipPath>
</defs>
</svg>
