<svg width="32" height="32" viewBox="0 0 32 32" fill="none" xmlns="http://www.w3.org/2000/svg">
<g clip-path="url(#clip0_2433_2)">
<path d="M7.16228 31.3531C6.81169 31.3531 6.46353 31.2437 6.16641 31.0289C5.61292 30.6277 5.35437 29.9382 5.50501 29.2729L7.56366 20.2046L0.582033 14.0819C0.0688363 13.6339 -0.127214 12.9244 0.0834851 12.2752C0.294184 11.6272 0.867441 11.1685 1.54617 11.1057L10.7837 10.2671L14.4359 1.72024C14.7052 1.0923 15.3185 0.686768 15.9999 0.686768C16.6813 0.686768 17.2946 1.0923 17.5639 1.71878L21.2161 10.2671L30.4522 11.1057C31.1324 11.167 31.7056 11.6272 31.9163 12.2752C32.127 12.9232 31.9322 13.6339 31.419 14.0819L24.4374 20.2034L26.496 29.2715C26.6469 29.9382 26.3881 30.6277 25.8349 31.0276C25.2829 31.4275 24.5468 31.4583 23.9654 31.1089L15.9999 26.3488L8.03437 31.1116C7.76508 31.2715 7.46502 31.3531 7.16228 31.3531ZM15.9999 24.2982C16.3027 24.2982 16.6025 24.3795 16.872 24.5394L24.3895 29.0356L22.4466 20.4766C22.3079 19.8674 22.5147 19.2314 22.9854 18.8193L29.5777 13.0379L20.856 12.2459C20.228 12.1885 19.688 11.7937 19.4426 11.2151L15.9999 3.14948L12.553 11.2163C12.3104 11.7911 11.7703 12.1858 11.1438 12.2432L2.42095 13.0352L9.01291 18.8166C9.48509 19.23 9.69164 19.8647 9.55175 20.4754L7.61029 29.0342L15.1278 24.5394C15.3971 24.3795 15.6972 24.2982 15.9999 24.2982ZM10.7132 10.4324C10.7132 10.4324 10.7132 10.4338 10.7117 10.4351L10.7132 10.4324ZM21.284 10.4285L21.2854 10.4312C21.2854 10.4297 21.2854 10.4297 21.284 10.4285Z" fill="white"/>
</g>
<defs>
<clipPath id="clip0_2433_2">
<rect width="32" height="32" fill="white"/>
</clipPath>
</defs>
</svg>
