<svg width="24" height="24" viewBox="0 0 24 24" fill="none" xmlns="http://www.w3.org/2000/svg">
<g clip-path="url(#clip0_2221_924)">
<mask id="mask0_2221_924" style="mask-type:luminance" maskUnits="userSpaceOnUse" x="0" y="0" width="24" height="24">
<path d="M24 0H0V24H24V0Z" fill="white"/>
</mask>
<g mask="url(#mask0_2221_924)">
<path fill-rule="evenodd" clip-rule="evenodd" d="M18.6187 1.94252C16.9067 1.45723 14.982 1.89628 13.634 3.24429C11.6483 5.22998 11.6483 8.47008 13.634 10.4558C15.6197 12.4414 18.8598 12.4414 20.8455 10.4558C22.1915 9.10979 22.6312 7.18886 22.1495 5.47884L19.004 8.62429C18.0297 9.59861 16.4398 9.59861 15.4655 8.62429C14.9777 8.13653 14.7413 7.50333 14.7398 6.86613C14.7281 6.21177 14.9837 5.57751 15.4655 5.09576L18.6187 1.94252ZM12.7855 2.39576C14.7197 0.461596 17.6157 0.0409724 19.9509 1.16983C20.1581 1.27 20.2897 1.47987 20.2897 1.71003V1.72003C20.2897 1.87916 20.2266 2.03177 20.114 2.14429L16.314 5.94429C16.0573 6.20104 15.933 6.52431 15.9396 6.84778L15.9399 6.86003C15.9399 7.20077 16.0633 7.52508 16.314 7.77576C16.8197 8.28145 17.6498 8.28145 18.1556 7.77576L21.9555 3.97576C22.0929 3.83839 22.2882 3.77603 22.4798 3.80843C22.6714 3.84083 22.8354 3.96398 22.9199 4.13889C24.0488 6.47409 23.6283 9.37012 21.694 11.3043C19.2397 13.7586 15.2398 13.7586 12.7855 11.3043C10.3312 8.84998 10.3312 4.85008 12.7855 2.39576Z" fill="white"/>
<path fill-rule="evenodd" clip-rule="evenodd" d="M12.6142 9.95424L2.60417 19.9642C2.09848 20.4699 2.09848 21.3 2.60417 21.8057C3.10985 22.3114 3.93995 22.3114 4.44564 21.8057L14.5757 11.6757L15.4242 12.5242L5.29417 22.6542C4.31985 23.6286 2.72996 23.6286 1.75564 22.6542C0.781324 21.6799 0.781324 20.09 1.75564 19.1157L11.7657 9.10571L12.6142 9.95424Z" fill="white"/>
<path fill-rule="evenodd" clip-rule="evenodd" d="M13.8455 12.4057C14.0798 12.1714 14.4597 12.1714 14.6941 12.4057L21.4512 19.1629C21.4517 19.1634 21.4522 19.1639 21.4527 19.1644C22.4384 20.1385 22.4388 21.7295 21.4541 22.7042C20.4873 23.6811 18.8973 23.676 17.9255 22.7042L11.1655 15.9442C10.9312 15.7099 10.9312 15.33 11.1655 15.0957C11.3998 14.8614 11.7797 14.8614 12.0141 15.0957L18.7741 21.8557C19.2813 22.363 20.1092 22.3588 20.6027 21.8586L20.6083 21.8528C21.1202 21.3477 21.1203 20.5221 20.6084 20.0171L20.6055 20.0143L13.8455 13.2542C13.6112 13.0199 13.6112 12.64 13.8455 12.4057Z" fill="white"/>
<path fill-rule="evenodd" clip-rule="evenodd" d="M5.7856 6.87569C6.01992 6.64137 6.39981 6.64137 6.63413 6.87569L10.6541 10.8957C10.8885 11.13 10.8885 11.5099 10.6541 11.7442C10.4198 11.9785 10.0399 11.9785 9.8056 11.7442L5.7856 7.72422C5.55129 7.4899 5.55129 7.11 5.7856 6.87569Z" fill="white"/>
<path fill-rule="evenodd" clip-rule="evenodd" d="M1.97414 1.72738C2.16679 1.53328 2.46633 1.49402 2.7025 1.63191L5.9225 3.51191C6.02591 3.57229 6.10889 3.66223 6.16076 3.77015L7.40076 6.35015C7.51114 6.57982 7.46442 6.85415 7.28424 7.03433L5.94424 8.37433C5.76429 8.55427 5.49041 8.60113 5.26088 8.49124L2.67088 7.25124C2.56242 7.19931 2.47206 7.11599 2.41153 7.01208L0.541531 3.80208C0.404815 3.5674 0.442799 3.27014 0.634136 3.07738L1.97414 1.72738ZM2.49859 2.90242L1.81021 3.59593L3.35552 6.24858L5.39601 7.22549L6.13493 6.48658L5.15878 4.45557L2.49859 2.90242Z" fill="white"/>
</g>
</g>
<defs>
<clipPath id="clip0_2221_924">
<rect width="24" height="24" fill="white"/>
</clipPath>
</defs>
</svg>
