<svg width="24" height="24" viewBox="0 0 24 24" fill="none" xmlns="http://www.w3.org/2000/svg">
<path fill-rule="evenodd" clip-rule="evenodd" d="M11.8299 1.66997C7.96389 1.66997 4.82988 4.80398 4.82988 8.66997C4.82988 12.536 7.96389 15.67 11.8299 15.67C15.6959 15.67 18.8299 12.536 18.8299 8.66997C18.8299 4.80398 15.6959 1.66997 11.8299 1.66997ZM3.62988 8.66997C3.62988 4.14124 7.30115 0.469971 11.8299 0.469971C16.3586 0.469971 20.0299 4.14124 20.0299 8.66997C20.0299 13.1987 16.3586 16.87 11.8299 16.87C7.30115 16.87 3.62988 13.1987 3.62988 8.66997Z" fill="white"/>
<path fill-rule="evenodd" clip-rule="evenodd" d="M11.8302 5.47002C10.0628 5.47002 8.63018 6.90271 8.63018 8.67002C8.63018 10.4373 10.0628 11.87 11.8302 11.87C13.5975 11.87 15.0302 10.4373 15.0302 8.67002C15.0302 6.90271 13.5975 5.47002 11.8302 5.47002ZM7.43018 8.67002C7.43018 6.23997 9.40013 4.27002 11.8302 4.27002C14.2602 4.27002 16.2302 6.23997 16.2302 8.67002C16.2302 11.1001 14.2602 13.07 11.8302 13.07C9.40013 13.07 7.43018 11.1001 7.43018 8.67002Z" fill="white"/>
<path fill-rule="evenodd" clip-rule="evenodd" d="M5.10903 19.3134L7.44662 14.6382L6.37331 14.1016L3.52331 19.8016C3.42348 20.0012 3.44274 20.2398 3.5733 20.4208C3.70386 20.6019 3.92413 20.6955 4.14509 20.6638L6.67016 20.3019L7.7493 23.1336C7.83396 23.3557 8.04179 23.5069 8.27921 23.5191C8.51663 23.5313 8.73886 23.4021 8.84581 23.1898L12.1958 16.5398L11.1241 16L8.38617 21.435L7.62063 19.4262C7.52073 19.1641 7.25252 19.0062 6.97483 19.046L5.10903 19.3134Z" fill="white"/>
<path fill-rule="evenodd" clip-rule="evenodd" d="M18.891 19.3134L16.5534 14.6382L17.6267 14.1016L20.4767 19.8016C20.5765 20.0012 20.5573 20.2398 20.4267 20.4208C20.2961 20.6019 20.0759 20.6955 19.8549 20.6638L17.3222 20.3008L16.1872 23.1424C16.0994 23.3623 15.8905 23.51 15.6539 23.5194C15.4173 23.5288 15.1972 23.3982 15.0922 23.186L11.8022 16.536L12.8778 16.0038L15.5716 21.4486L16.3828 19.4173C16.4856 19.1601 16.751 19.0067 17.0252 19.046L18.891 19.3134Z" fill="white"/>
</svg>
