<svg width="64" height="64" viewBox="0 0 64 64" fill="none" xmlns="http://www.w3.org/2000/svg">
<g clip-path="url(#clip0_15_98)">
<path d="M1.09522 57.601L8.59717 50.0995L13.8999 55.4023L6.3999 62.9042C10.5288 64.8813 15.7056 64.2035 19.2046 60.705C24.9311 54.9784 21.4565 48.1054 21.4253 47.7304L47.7241 21.5761C48.4653 21.792 50.06 22.6235 52.604 22.6235C55.6196 22.6235 58.5815 21.3281 60.7055 19.2041C64.0727 15.8383 64.9555 10.6933 62.9047 6.39939L55.4028 13.9013L50.1001 8.59861L57.6 1.09666C53.229 -0.999525 48.083 0.00438022 44.7973 3.29588C39.0717 9.01804 42.3886 15.896 42.4194 16.2715L16.1191 42.4243C15.7441 42.3881 9.01367 39.0703 3.29444 44.7949C-0.0727448 48.162 -0.955556 53.3075 1.09522 57.601Z" fill="white"/>
<path d="M32 45.1249C31.1811 45.1249 30.3857 45.0273 29.6079 44.8832L25.6831 48.787C25.9482 49.8363 26.0811 50.8192 26.1499 51.7655C26.8359 51.9677 27.5361 52.1366 28.25 52.268V56.3749H35.75V52.268C38.6533 51.7338 41.3437 50.601 43.6845 48.9877L46.584 51.8871L51.8872 46.5839L48.9878 43.6845C50.601 41.3437 51.7339 38.6532 52.268 35.7499H56.375V28.2499H52.268C52.1469 27.5927 51.9863 26.9501 51.8051 26.3163C50.6142 26.2504 49.5547 26.0864 48.7304 25.8642L44.8906 29.683C45.0263 30.4379 45.125 31.207 45.125 31.9999C45.125 39.2363 39.2363 45.1249 32 45.1249Z" fill="white"/>
<path d="M32 18.8749C32.771 18.8749 33.5166 18.9745 34.2519 19.103L38.1616 15.2148C37.8925 14.1503 37.7612 13.1557 37.6938 12.1972C37.0571 12.0151 36.4106 11.8534 35.75 11.7319V7.62494H28.25V11.7319C25.3467 12.266 22.6562 13.3989 20.3154 15.0116L17.416 12.1127L12.1128 17.4159L15.0117 20.3154C13.3989 22.6557 12.2661 25.3466 11.7319 28.2499H7.625V35.7499H11.7319C11.854 36.4135 12.0161 37.0629 12.1992 37.703C13.2871 37.7909 14.2969 37.9447 15.0957 38.1523L19.0947 34.1752C18.9751 33.4638 18.875 32.7445 18.875 31.9999C18.875 24.7636 24.7637 18.8749 32 18.8749Z" fill="white"/>
</g>
<defs>
<clipPath id="clip0_15_98">
<rect width="64" height="64" fill="white"/>
</clipPath>
</defs>
</svg>
