<svg width="36" height="36" viewBox="0 0 36 36" fill="none" xmlns="http://www.w3.org/2000/svg">
<path d="M6.66839 24.6615C9.59634 26.6898 13.9631 24.3862 13.8701 20.7511C13.8685 19.5146 13.3766 18.3291 12.5022 17.4548C11.6279 16.5804 10.4424 16.0885 9.20592 16.0869C4.55822 16.1063 2.82283 22.1738 6.66839 24.6615Z" fill="white"/>
<path d="M12.9754 25.1455C12.0247 25.9564 10.8376 26.4387 9.59075 26.5208C8.34389 26.6029 7.10382 26.2804 6.05497 25.6012C5.83953 25.4621 5.63283 25.3099 5.43605 25.1455C4.5223 25.5784 3.70227 26.1863 3.02236 26.9347C1.2602 28.7861 2.72569 32.0475 5.27862 31.9759L13.1273 31.9759C15.6817 32.0477 17.1459 28.7858 15.3834 26.9347C14.7045 26.1877 13.8866 25.58 12.9754 25.1455Z" fill="white"/>
<path d="M26.7941 16.0869C25.5576 16.0885 24.3722 16.5805 23.4978 17.4548C22.6234 18.3292 22.1315 19.5147 22.1299 20.7512C22.3547 26.9262 31.2387 26.9225 31.4584 20.7511C31.4577 19.5143 30.9661 18.3283 30.0915 17.4538C29.2169 16.5792 28.031 16.0876 26.7941 16.0869Z" fill="white"/>
<path d="M32.9768 26.9347C32.2969 26.1863 31.4769 25.5784 30.5631 25.1455C29.5135 26.0459 28.1763 26.5408 26.7935 26.5408C25.4106 26.5408 24.0734 26.0459 23.0238 25.1455C21.1515 26.0224 19.0601 27.9348 20.1038 30.1755C20.3382 30.7137 20.7255 31.1712 21.2176 31.4912C21.7096 31.8113 22.2849 31.9798 22.8718 31.9759H30.7206C33.2714 32.0469 34.741 28.7867 32.9768 26.9347Z" fill="white"/>
<path d="M16.1766 4.02393H6.45424C6.30515 4.02437 6.1623 4.08378 6.05688 4.1892C5.95146 4.29462 5.89204 4.43748 5.8916 4.58656V11.5295C5.89204 11.6786 5.95146 11.8214 6.05688 11.9269C6.1623 12.0323 6.30515 12.0917 6.45424 12.0921H8.67105V14.3089C8.67215 14.4142 8.70265 14.517 8.75909 14.6058C8.81554 14.6946 8.8957 14.7658 8.9905 14.8114C9.08531 14.8571 9.19098 14.8753 9.2956 14.8641C9.40021 14.8528 9.4996 14.8125 9.58253 14.7478L12.9021 12.0922H16.1766C16.3257 12.0917 16.4686 12.0323 16.574 11.9269C16.6794 11.8215 16.7388 11.6786 16.7393 11.5295V4.58653C16.7388 4.43745 16.6794 4.2946 16.574 4.18918C16.4686 4.08377 16.3257 4.02436 16.1766 4.02393Z" fill="white"/>
<path d="M26.4165 14.7478C26.4995 14.8125 26.5988 14.8528 26.7035 14.864C26.8081 14.8753 26.9137 14.857 27.0085 14.8114C27.1033 14.7657 27.1835 14.6945 27.2399 14.6057C27.2964 14.5169 27.3269 14.4141 27.328 14.3089V12.0921H29.5448C29.6939 12.0917 29.8367 12.0323 29.9421 11.9269C30.0476 11.8214 30.107 11.6786 30.1074 11.5295V4.58653C30.107 4.43745 30.0475 4.29461 29.9421 4.18919C29.8367 4.08378 29.6939 4.02436 29.5448 4.02393H19.8224C19.6733 4.02437 19.5305 4.08378 19.425 4.1892C19.3196 4.29462 19.2602 4.43748 19.2598 4.58656V11.5295C19.2602 11.6786 19.3196 11.8214 19.425 11.9269C19.5305 12.0323 19.6733 12.0917 19.8224 12.0921H23.097L26.4165 14.7478Z" fill="white"/>
</svg>
