<svg width="36" height="36" viewBox="0 0 36 36" fill="none" xmlns="http://www.w3.org/2000/svg">
<g clip-path="url(#clip0_156_178)">
<path d="M21.7576 26.2815L19.914 20.75L15.6953 29.1875L13.3201 22.0627L12.1086 23.2742H4.46777C5.32861 28.6485 9.4163 36.0008 14.8361 36.0008C15.8907 36.0008 16.9525 35.7083 18.0001 35.1303C19.0478 35.7083 20.1095 36.0008 21.1642 36.0008C26.583 36.0008 30.6711 28.6517 31.5325 23.2742H24.7649L21.7576 26.2815Z" fill="white"/>
<path d="M14.2425 18.1578L16.0861 23.6893L20.3048 15.2518L22.68 22.3765L23.8915 21.165H31.7109C31.7109 15.3495 26.9796 10.6182 21.1641 10.6182C20.4659 10.6182 19.7677 10.6955 19.0547 10.853V8.43848H20.1094C24.1805 8.43848 27.4922 5.12676 27.4922 1.05566V0.000976563H24.3281C21.8011 0.000976563 19.5666 1.27715 18.2362 3.21848C18.2362 3.21862 18.236 3.21883 18.2359 3.21897C17.148 1.2993 15.0862 0.000976562 12.7266 0.000976562V2.11035C15.0528 2.11035 16.9453 4.00288 16.9453 6.3291V10.853C16.2323 10.6955 15.5341 10.6182 14.8359 10.6182C9.02039 10.6182 4.28906 15.3495 4.28906 21.165H11.2352L14.2425 18.1578Z" fill="white"/>
<path d="M0 21.165V23.2744H4.46766C4.35023 22.5425 4.28906 21.8337 4.28906 21.165H0Z" fill="white"/>
<path d="M31.7108 21.165C31.7108 21.8337 31.6496 22.5425 31.5322 23.2744H35.9999V21.165H31.7108Z" fill="white"/>
</g>
<defs>
<clipPath id="clip0_156_178">
<rect width="36" height="36" fill="white"/>
</clipPath>
</defs>
</svg>
