<svg width="36" height="36" viewBox="0 0 36 36" fill="none" xmlns="http://www.w3.org/2000/svg">
<path fill-rule="evenodd" clip-rule="evenodd" d="M30.4627 3.91049H32.2173C32.3109 3.91049 32.4007 3.94769 32.4669 4.01391C32.5331 4.08012 32.5702 4.16983 32.5702 4.26343V5.40661H21.7424V4.26343C21.7424 4.16983 21.7796 4.08012 21.8458 4.01391C21.912 3.94769 22.0018 3.91049 22.0954 3.91049H23.85V2.69059C23.85 2.59699 23.8872 2.5072 23.9534 2.44106C24.0195 2.37485 24.1093 2.33765 24.2029 2.33765H30.1097C30.2033 2.33765 30.2931 2.37485 30.3593 2.44106C30.4255 2.5072 30.4627 2.59699 30.4627 2.69059V3.91049ZM13.0559 13.0438L5.00165 19.628L1.05859 19.4753L13.0559 9.66767L25.0532 19.4753L21.1102 19.628L13.0559 13.0438ZM8.59911 33.6623H5.06017V20.7559C5.29946 20.7435 5.52958 20.6551 5.7165 20.5024L13.0559 14.5025L20.3954 20.5024C20.5822 20.6551 20.8124 20.7435 21.0517 20.7559V33.6623H17.3957V24.1505C17.3957 23.7427 17.2337 23.3516 16.9453 23.0633C16.657 22.7749 16.2659 22.6129 15.8581 22.6129H10.1367C9.72888 22.6129 9.33782 22.7749 9.04939 23.0633C8.76104 23.3516 8.59911 23.7427 8.59911 24.1505V33.6623ZM16.2663 33.6623H9.72852V24.1505C9.72852 24.0423 9.77151 23.9384 9.84803 23.8618C9.92462 23.7853 10.0284 23.7423 10.1367 23.7423H15.8581C15.9663 23.7423 16.0702 23.7853 16.1467 23.8618C16.2233 23.9384 16.2663 24.0423 16.2663 24.1505V33.6623ZM14.3134 27.9554V29.3451C14.3134 29.6568 14.5665 29.9098 14.8781 29.9098C15.1898 29.9098 15.4429 29.6568 15.4429 29.3451V27.9554C15.4429 27.6437 15.1898 27.3907 14.8781 27.3907C14.5665 27.3907 14.3134 27.6437 14.3134 27.9554ZM22.1804 20.7168L25.0969 20.6038C25.5661 20.5857 25.975 20.2792 26.1241 19.8341C26.2733 19.3889 26.1315 18.898 25.7681 18.6008L19.3718 13.372V6.88896C19.3718 6.69407 19.5298 6.53602 19.7247 6.53602H34.588C34.7829 6.53602 34.9409 6.69407 34.9409 6.88896V33.6623H22.1811V20.7559C22.1811 20.7428 22.1809 20.7298 22.1804 20.7168ZM27.721 14.6951H31.0384C31.2333 14.6951 31.3913 14.5371 31.3913 14.3422V12.1757H27.721V14.6951ZM31.3913 11.0463V8.87983C31.3913 8.68487 31.2333 8.52689 31.0384 8.52689H27.721V11.0463H31.3913ZM22.9214 12.1757V14.3422C22.9214 14.5371 23.0794 14.6951 23.2743 14.6951H26.5916V12.1757H22.9214ZM26.5916 8.52689H23.2743C23.0794 8.52689 22.9214 8.68487 22.9214 8.87983V11.0463H26.5916V8.52689Z" fill="white"/>
</svg>
