<svg width="36" height="36" viewBox="0 0 36 36" fill="none" xmlns="http://www.w3.org/2000/svg">
<g clip-path="url(#clip0_156_175)">
<path d="M6.72626 8.88216C6.53328 8.85528 6.33158 8.86666 6.13154 8.92025L3.23408 9.69661C2.43393 9.9111 1.9592 10.7333 2.17353 11.5335L2.36689 12.2572C2.4731 12.6567 2.23591 13.0669 1.83661 13.1742L1.11298 13.3704C0.312836 13.5849 -0.16189 14.4072 0.0524341 15.2074L2.38154 23.8997C2.59602 24.6999 3.41826 25.1746 4.21845 24.9603L4.94208 24.7669C5.34261 24.6588 5.75479 24.8964 5.862 25.2972L6.05536 26.0208C6.26985 26.821 7.09209 27.2957 7.89228 27.0814L10.7897 26.305C11.5899 26.0905 12.0646 25.2683 11.8503 24.4681L10.4009 19.0607C10.2937 18.6606 10.5191 18.2127 10.91 18.0759C12.8151 17.409 15.1815 16.889 17.9997 16.889C20.8179 16.889 23.1845 17.409 25.0895 18.0759C25.4803 18.2128 25.7057 18.6606 25.5985 19.0607L24.1491 24.4681C23.9348 25.2683 24.4095 26.0905 25.2097 26.305L28.1071 27.0814C28.9073 27.2957 29.7296 26.821 29.944 26.0208L30.1374 25.2972C30.2446 24.8964 30.6568 24.6588 31.0573 24.7669L31.781 24.9603C32.5811 25.1746 33.4034 24.6999 33.6179 23.8997L35.947 15.2074C36.1613 14.4072 35.6866 13.5849 34.8864 13.3704L34.1628 13.1742C33.7635 13.0669 33.5263 12.6567 33.6325 12.2572L33.8259 11.5335C34.0402 10.7333 33.5655 9.9111 32.7653 9.69661L29.8679 8.92025C29.0677 8.70592 28.2454 9.18065 28.031 9.98079L26.7631 14.7143C26.6559 15.1144 26.2551 15.3193 25.8631 15.1855C23.6974 14.4464 21.0521 13.889 17.9997 13.889C14.9472 13.889 12.3019 14.4464 10.1362 15.1856C9.74422 15.3193 9.34349 15.1144 9.23632 14.7143L7.96845 9.98079C7.80759 9.38068 7.30521 8.9628 6.72626 8.88216Z" fill="white"/>
</g>
<defs>
<clipPath id="clip0_156_175">
<rect width="36" height="36" fill="white"/>
</clipPath>
</defs>
</svg>
