<svg width="36" height="36" viewBox="0 0 36 36" fill="none" xmlns="http://www.w3.org/2000/svg">
<path d="M4.5 32.6248H7.3125C9.16877 32.6248 10.6875 31.106 10.6875 29.2498V19.2373C10.6875 17.3698 9.16877 15.8623 7.3125 15.8623H4.5C2.64373 15.8623 1.125 17.3698 1.125 19.2373V29.2498C1.125 31.106 2.64373 32.6248 4.5 32.6248Z" fill="white"/>
<path d="M19.4062 9.61865H16.5938C14.7375 9.61865 13.2188 11.1374 13.2188 12.9937V29.2499C13.2188 31.1061 14.7375 32.6249 16.5938 32.6249H19.4062C21.2625 32.6249 22.7812 31.1061 22.7812 29.2499V12.9937C22.7812 11.1374 21.2625 9.61865 19.4062 9.61865Z" fill="white"/>
<path d="M31.5 3.375H28.6875C26.8312 3.375 25.3125 4.89373 25.3125 6.75V29.25C25.3125 31.1062 26.8312 32.625 28.6875 32.625H31.5C33.3563 32.625 34.875 31.1062 34.875 29.25V6.75C34.875 4.89373 33.3563 3.375 31.5 3.375Z" fill="white"/>
</svg>
