<svg width="24" height="24" viewBox="0 0 24 24" fill="none" xmlns="http://www.w3.org/2000/svg">
<path fill-rule="evenodd" clip-rule="evenodd" d="M19.5788 3.30943C14.5879 1.11926 9.48522 1.15176 4.2416 3.23752L4.01984 2.68001L4.24267 3.23709C4.14144 3.27758 4.03984 3.40194 4.03984 3.58V10.22C4.03984 13.3009 5.26814 16.2222 7.41094 18.2739L12.4421 22.1418L16.954 18.2364C18.8529 16.2133 19.9299 13.4614 19.9299 10.58V3.69C19.9299 3.48988 19.8064 3.37074 19.6941 3.34669C19.6545 3.33819 19.6159 3.32571 19.5788 3.30943ZM12.0301 23.3388C12.1408 23.4523 12.2946 23.52 12.4599 23.52H12.4699C12.6486 23.52 12.8136 23.4408 12.9252 23.3107L17.7625 19.1237C17.7778 19.1105 17.7924 19.0965 17.8062 19.0819C19.9346 16.827 21.1299 13.7683 21.1299 10.58V3.69C21.1299 3.01164 20.7009 2.36993 20.0119 2.18912C14.7183 -0.118941 9.29746 -0.0649983 3.79807 2.12249L3.797 2.12292C3.19823 2.36243 2.83984 2.95806 2.83984 3.58V10.22C2.83984 13.6283 4.20291 16.8773 6.60619 19.1646C6.62144 19.1791 6.63744 19.1928 6.65414 19.2057L12.0301 23.3388Z" fill="white"/>
<path fill-rule="evenodd" clip-rule="evenodd" d="M16.1327 7.2107C16.4084 7.39451 16.4829 7.76703 16.2991 8.04275L12.4991 13.7427C12.3994 13.8923 12.2379 13.9893 12.059 14.007C11.8801 14.0247 11.7027 13.9613 11.5756 13.8342L8.72554 10.9842C8.49123 10.7499 8.49123 10.37 8.72554 10.1357C8.95986 9.90135 9.33976 9.90135 9.57407 10.1357L11.9066 12.4681L15.3006 7.37711C15.4844 7.10139 15.857 7.02689 16.1327 7.2107Z" fill="white"/>
</svg>
