<svg width="24" height="24" viewBox="0 0 24 24" fill="none" xmlns="http://www.w3.org/2000/svg">
<g clip-path="url(#clip0_2221_977)">
<mask id="mask0_2221_977" style="mask-type:luminance" maskUnits="userSpaceOnUse" x="0" y="0" width="24" height="24">
<path d="M24 0H0V24H24V0Z" fill="white"/>
</mask>
<g mask="url(#mask0_2221_977)">
<path fill-rule="evenodd" clip-rule="evenodd" d="M0.470215 3.4501C0.470215 3.11873 0.738844 2.8501 1.07021 2.8501H4.87021C5.20158 2.8501 5.47021 3.11873 5.47021 3.4501C5.47021 3.78147 5.20158 4.0501 4.87021 4.0501H1.67021V21.5001C1.67021 21.6887 1.83158 21.8501 2.02021 21.8501H21.9702C22.1588 21.8501 22.3202 21.6887 22.3202 21.5001V4.0501H19.1202C18.7888 4.0501 18.5202 3.78147 18.5202 3.4501C18.5202 3.11873 18.7888 2.8501 19.1202 2.8501H22.9202C23.2515 2.8501 23.5202 3.11873 23.5202 3.4501V21.5001C23.5202 22.3515 22.8215 23.0501 21.9702 23.0501H2.02021C1.16884 23.0501 0.470215 22.3515 0.470215 21.5001V3.4501Z" fill="white"/>
<path fill-rule="evenodd" clip-rule="evenodd" d="M6.77051 3.4501C6.77051 3.11873 7.03914 2.8501 7.37051 2.8501H16.8705C17.2019 2.8501 17.4705 3.11873 17.4705 3.4501C17.4705 3.78147 17.2019 4.0501 16.8705 4.0501H7.37051C7.03914 4.0501 6.77051 3.78147 6.77051 3.4501Z" fill="white"/>
<path fill-rule="evenodd" clip-rule="evenodd" d="M5.82051 2.14995C5.63188 2.14995 5.47051 2.31132 5.47051 2.49995V4.39995C5.47051 4.58858 5.63188 4.74995 5.82051 4.74995C6.00914 4.74995 6.17051 4.58858 6.17051 4.39995V2.49995C6.17051 2.31132 6.00914 2.14995 5.82051 2.14995ZM4.27051 2.49995C4.27051 1.64858 4.96914 0.949951 5.82051 0.949951C6.67188 0.949951 7.37051 1.64858 7.37051 2.49995V4.39995C7.37051 5.25132 6.67188 5.94995 5.82051 5.94995C4.96914 5.94995 4.27051 5.25132 4.27051 4.39995V2.49995Z" fill="white"/>
<path fill-rule="evenodd" clip-rule="evenodd" d="M18.1701 2.14995C17.9815 2.14995 17.8201 2.31132 17.8201 2.49995V4.39995C17.8201 4.58858 17.9815 4.74995 18.1701 4.74995C18.3587 4.74995 18.5201 4.58858 18.5201 4.39995V2.49995C18.5201 2.31132 18.3587 2.14995 18.1701 2.14995ZM16.6201 2.49995C16.6201 1.64858 17.3187 0.949951 18.1701 0.949951C19.0215 0.949951 19.7201 1.64858 19.7201 2.49995V4.39995C19.7201 5.25132 19.0215 5.94995 18.1701 5.94995C17.3187 5.94995 16.6201 5.25132 16.6201 4.39995V2.49995Z" fill="white"/>
<path fill-rule="evenodd" clip-rule="evenodd" d="M1.07031 9.15005C1.07031 8.81868 1.33894 8.55005 1.67031 8.55005H22.5703C22.9017 8.55005 23.1703 8.81868 23.1703 9.15005C23.1703 9.48142 22.9017 9.75005 22.5703 9.75005H1.67031C1.33894 9.75005 1.07031 9.48142 1.07031 9.15005Z" fill="white"/>
</g>
</g>
<defs>
<clipPath id="clip0_2221_977">
<rect width="24" height="24" fill="white"/>
</clipPath>
</defs>
</svg>
